<svg width="193" height="47" viewBox="0 0 193 47" fill="none" xmlns="http://www.w3.org/2000/svg">
<g opacity="0.95">
<path d="M20.7972 31.4152C19.5321 31.4208 18.2838 31.1144 17.1546 30.521C16.0254 29.9276 15.0474 29.0642 14.3011 28.0015L9.09882 31.1099C9.29678 31.3473 9.53113 31.5489 9.79246 31.7066L19.0498 37.2573C19.5908 37.5448 20.1896 37.6947 20.7972 37.6947C21.4047 37.6947 22.0035 37.5448 22.5446 37.2573L31.8019 31.7066C32.0632 31.5489 32.2976 31.3473 32.4955 31.1099L27.3067 27.946C26.5647 29.0208 25.5872 29.8961 24.4551 30.4994C23.3231 31.1027 22.0691 31.4167 20.7972 31.4152Z" fill="url(#paint0_linear_2_56)"/>
<path d="M12.6529 23.0388C12.6577 21.0653 13.4247 19.1627 14.8074 17.6946C16.1901 16.2266 18.0915 15.296 20.1481 15.0807V9.09888C19.8361 9.16075 19.5359 9.26811 19.2582 9.4172L9.60759 14.7226C9.08305 15.0573 8.64689 15.5033 8.33331 16.0257C8.01967 16.548 7.83711 17.1325 7.79987 17.7334V28.3441C7.80416 28.6503 7.85563 28.9543 7.95279 29.2461L13.3761 26.2618C12.9018 25.2474 12.6555 24.1495 12.6529 23.0388Z" fill="url(#paint1_linear_2_56)"/>
<path d="M32.082 14.7189L22.9394 9.41701C22.6763 9.26798 22.3919 9.16068 22.0963 9.09888V15.0635C23.3383 15.2051 24.53 15.6381 25.5753 16.3278C26.6206 17.0174 27.4904 17.9443 28.1145 19.034C28.7387 20.1236 29.0998 21.3455 29.1688 22.6013C29.2378 23.857 29.0128 25.1115 28.5119 26.2638L33.6498 29.2461C33.7418 28.9544 33.7906 28.6507 33.7946 28.3448V17.741C33.7613 17.1382 33.5893 16.5515 33.2921 16.027C32.9948 15.5025 32.5807 15.0547 32.082 14.7189Z" fill="url(#paint2_linear_2_56)"/>
<path d="M38.7421 9.4049L23.6492 0.6761C22.7641 0.231497 21.7874 0 20.7971 0C19.8068 0 18.8302 0.231497 17.945 0.6761L2.85206 9.4049C2.02362 9.94536 1.33387 10.6733 0.838384 11.53C0.342958 12.3866 0.0557622 13.3479 0 14.3362V31.7937C0.0547224 32.7841 0.341398 33.7477 0.836824 34.6067C1.33225 35.4657 2.02258 36.196 2.85206 36.7387L17.945 45.4676C18.8302 45.9122 19.8068 46.1436 20.7971 46.1436C21.7874 46.1436 22.7641 45.9122 23.6492 45.4676L38.7421 36.7387C39.5716 36.196 40.2619 35.4657 40.7574 34.6067C41.2528 33.7477 41.5395 32.7841 41.5942 31.7937V14.3362C41.5384 13.3479 41.2512 12.3866 40.7558 11.53C40.2603 10.6733 39.5706 9.94536 38.7421 9.4049ZM36.8043 29.7857C36.76 30.5465 36.5382 31.2863 36.1566 31.9458C35.7751 32.6053 35.2444 33.166 34.6072 33.5832L22.9805 40.3039C22.3013 40.6473 21.5511 40.8262 20.7903 40.8262C20.0294 40.8262 19.2792 40.6473 18.6001 40.3039L6.98698 33.5832C6.34974 33.166 5.81909 32.6053 5.4376 31.9458C5.05603 31.2863 4.83422 30.5465 4.7899 29.7857V16.3579C4.83422 15.597 5.05603 14.8572 5.4376 14.1978C5.81909 13.5383 6.34974 12.9775 6.98698 12.5603L18.5864 5.83963C19.2655 5.49628 20.0157 5.31736 20.7766 5.31736C21.5375 5.31736 22.2877 5.49628 22.9669 5.83963L34.5936 12.5603C35.2333 12.976 35.7667 13.5361 36.1506 14.1957C36.5346 14.8552 36.7585 15.5959 36.8043 16.3579V29.7857Z" fill="url(#paint3_linear_2_56)"/>
<path d="M14.9467 23.0718C14.9467 24.1644 15.2897 25.2325 15.9324 26.1409C16.5751 27.0494 17.4887 27.7574 18.5575 28.1756C19.6263 28.5937 20.8024 28.703 21.9371 28.4899C23.0717 28.2768 24.1139 27.7507 24.9319 26.978C25.7499 26.2055 26.307 25.2212 26.5327 24.1496C26.7584 23.0779 26.6426 21.9672 26.1998 20.9578C25.7571 19.9484 25.0075 19.0856 24.0456 18.4786C23.0837 17.8716 21.9527 17.5476 20.7959 17.5476C19.2446 17.5476 17.7569 18.1296 16.6599 19.1656C15.563 20.2016 14.9467 21.6067 14.9467 23.0718Z" fill="url(#paint4_linear_2_56)"/>
</g>
<path d="M50.3622 32.0718V13.8718H56.5762C58.7082 13.8718 60.4588 14.2531 61.8282 15.0158C63.2148 15.7611 64.2375 16.8184 64.8962 18.1878C65.5722 19.5398 65.9102 21.1344 65.9102 22.9718C65.9102 24.8091 65.5722 26.4124 64.8962 27.7818C64.2375 29.1338 63.2148 30.1911 61.8282 30.9538C60.4588 31.6991 58.7082 32.0718 56.5762 32.0718H50.3622ZM53.6902 29.2118H56.4202C57.9455 29.2118 59.1502 28.9691 60.0342 28.4838C60.9182 27.9811 61.5508 27.2704 61.9322 26.3518C62.3135 25.4158 62.5042 24.2891 62.5042 22.9718C62.5042 21.6718 62.3135 20.5538 61.9322 19.6178C61.5508 18.6818 60.9182 17.9624 60.0342 17.4598C59.1502 16.9571 57.9455 16.7058 56.4202 16.7058H53.6902V29.2118ZM68.8466 32.0718V13.8718H80.7286V16.5498H72.1746V21.5418H79.9486V24.1418H72.1746V29.3938H80.7286V32.0718H68.8466ZM90.0918 32.3838C88.7571 32.3838 87.5785 32.1584 86.5558 31.7078C85.5331 31.2398 84.7271 30.5811 84.1378 29.7318C83.5485 28.8651 83.2451 27.8164 83.2278 26.5858H86.7378C86.7725 27.4351 87.0758 28.1544 87.6478 28.7438C88.2371 29.3158 89.0431 29.6018 90.0658 29.6018C90.9498 29.6018 91.6518 29.3938 92.1718 28.9778C92.6918 28.5444 92.9518 27.9724 92.9518 27.2618C92.9518 26.5164 92.7178 25.9358 92.2498 25.5198C91.7991 25.1038 91.1925 24.7658 90.4298 24.5058C89.6671 24.2458 88.8525 23.9684 87.9858 23.6738C86.5818 23.1884 85.5071 22.5644 84.7618 21.8018C84.0338 21.0391 83.6698 20.0251 83.6698 18.7598C83.6525 17.6851 83.9038 16.7664 84.4238 16.0038C84.9611 15.2238 85.6891 14.6258 86.6078 14.2098C87.5265 13.7764 88.5838 13.5598 89.7798 13.5598C90.9931 13.5598 92.0591 13.7764 92.9778 14.2098C93.9138 14.6431 94.6418 15.2498 95.1618 16.0298C95.6991 16.8098 95.9851 17.7371 96.0198 18.8118H92.4578C92.4405 18.1704 92.1891 17.6071 91.7038 17.1218C91.2358 16.6191 90.5771 16.3678 89.7278 16.3678C88.9998 16.3504 88.3845 16.5324 87.8818 16.9138C87.3965 17.2778 87.1538 17.8151 87.1538 18.5258C87.1538 19.1324 87.3445 19.6178 87.7258 19.9818C88.1071 20.3284 88.6271 20.6231 89.2858 20.8658C89.9445 21.1084 90.6985 21.3684 91.5478 21.6458C92.4491 21.9578 93.2725 22.3218 94.0178 22.7378C94.7631 23.1538 95.3611 23.7084 95.8118 24.4018C96.2625 25.0778 96.4878 25.9531 96.4878 27.0278C96.4878 27.9811 96.2451 28.8651 95.7598 29.6798C95.2745 30.4944 94.5551 31.1531 93.6018 31.6558C92.6485 32.1411 91.4785 32.3838 90.0918 32.3838ZM99.3915 32.0718V13.8718H102.719V32.0718H99.3915ZM114.203 32.3838C112.487 32.3838 110.988 31.9938 109.705 31.2138C108.422 30.4338 107.426 29.3504 106.715 27.9638C106.004 26.5598 105.649 24.9304 105.649 23.0758C105.649 21.2038 106.013 19.5571 106.741 18.1358C107.486 16.6971 108.535 15.5791 109.887 14.7818C111.256 13.9671 112.877 13.5598 114.749 13.5598C116.881 13.5598 118.649 14.0711 120.053 15.0938C121.457 16.1164 122.367 17.5291 122.783 19.3318H119.065C118.788 18.4824 118.285 17.8238 117.557 17.3558C116.829 16.8704 115.893 16.6278 114.749 16.6278C112.929 16.6278 111.525 17.2084 110.537 18.3698C109.549 19.5138 109.055 21.0911 109.055 23.1018C109.055 25.1124 109.54 26.6724 110.511 27.7818C111.499 28.8738 112.834 29.4198 114.515 29.4198C116.162 29.4198 117.401 28.9778 118.233 28.0938C119.082 27.1924 119.594 26.0138 119.767 24.5578H115.165V22.0618H123.121V32.0718H120.053L119.793 29.6798C119.204 30.5464 118.467 31.2138 117.583 31.6818C116.699 32.1498 115.572 32.3838 114.203 32.3838ZM126.356 32.0718V13.8718H129.684L138.238 26.6898V13.8718H141.566V32.0718H138.238L129.684 19.2798V32.0718H126.356ZM144.549 32.0718V29.5238L152.921 16.6538H144.627V13.8718H156.769V16.4198L148.345 29.2898H156.821V32.0718H144.549ZM167.555 32.3838C165.718 32.3838 164.141 31.9938 162.823 31.2138C161.506 30.4164 160.492 29.3158 159.781 27.9118C159.071 26.4904 158.715 24.8524 158.715 22.9978C158.715 21.1431 159.071 19.5051 159.781 18.0838C160.492 16.6624 161.506 15.5531 162.823 14.7558C164.141 13.9584 165.718 13.5598 167.555 13.5598C169.739 13.5598 171.525 14.1058 172.911 15.1978C174.315 16.2724 175.191 17.7891 175.537 19.7478H171.871C171.646 18.7598 171.161 17.9884 170.415 17.4338C169.687 16.8618 168.717 16.5758 167.503 16.5758C165.822 16.5758 164.505 17.1478 163.551 18.2918C162.598 19.4358 162.121 21.0044 162.121 22.9978C162.121 24.9911 162.598 26.5598 163.551 27.7038C164.505 28.8304 165.822 29.3938 167.503 29.3938C168.717 29.3938 169.687 29.1338 170.415 28.6138C171.161 28.0764 171.646 27.3398 171.871 26.4038H175.537C175.191 28.2758 174.315 29.7404 172.911 30.7978C171.525 31.8551 169.739 32.3838 167.555 32.3838ZM182.25 32.0718V25.5978L176.14 13.8718H179.91L183.94 22.2698L187.944 13.8718H191.662L185.578 25.5978V32.0718H182.25Z" fill="#3D3D3F"/>
<defs>
<linearGradient id="paint0_linear_2_56" x1="23.3444" y1="39.3819" x2="23.6238" y2="25.6025" gradientUnits="userSpaceOnUse">
<stop stop-color="#F35F2F"/>
<stop offset="1" stop-color="#F35F2F" stop-opacity="0.75"/>
</linearGradient>
<linearGradient id="paint1_linear_2_56" x1="15.3184" y1="32.7331" x2="17.5663" y2="4.42243" gradientUnits="userSpaceOnUse">
<stop stop-color="#F35F2F"/>
<stop offset="1" stop-color="#F35F2F" stop-opacity="0.75"/>
</linearGradient>
<linearGradient id="paint2_linear_2_56" x1="29.219" y1="32.7331" x2="31.5901" y2="4.44267" gradientUnits="userSpaceOnUse">
<stop stop-color="#F35F2F"/>
<stop offset="1" stop-color="#F35F2F" stop-opacity="0.75"/>
</linearGradient>
<linearGradient id="paint3_linear_2_56" x1="25.3255" y1="54.1299" x2="28.838" y2="-10.9297" gradientUnits="userSpaceOnUse">
<stop stop-color="#F35F2F"/>
<stop offset="1" stop-color="#F35F2F" stop-opacity="0.75"/>
</linearGradient>
<linearGradient id="paint4_linear_2_56" x1="22.0695" y1="30.5083" x2="22.7861" y2="14.9182" gradientUnits="userSpaceOnUse">
<stop stop-color="#F35F2F"/>
<stop offset="1" stop-color="#F35F2F" stop-opacity="0.75"/>
</linearGradient>
</defs>
</svg>
