<svg width="54" height="60" viewBox="0 0 54 60" fill="none" xmlns="http://www.w3.org/2000/svg">
<g clip-path="url(#clip0_1:280)">
<path d="M0.5 5C0.5 2.23858 2.73858 0 5.5 0H48.5C51.2614 0 53.5 2.23858 53.5 5V55C53.5 57.7614 51.2614 60 48.5 60H5.5C2.73858 60 0.5 57.7614 0.5 55V5Z" fill="#EEEAFF"/>
<path d="M22.1473 4.6875C22.9423 4.6875 23.5875 4.26843 23.5875 3.75C23.5875 3.23157 22.9423 2.8125 22.1473 2.8125H22.1329C21.3379 2.8125 20.7013 3.23157 20.7013 3.75C20.7013 4.26843 21.3523 4.6875 22.1473 4.6875Z" fill="#582EFF"/>
<path d="M26.4239 4.6875H30.7446C31.541 4.6875 32.1848 4.26843 32.1848 3.75C32.1848 3.23157 31.541 2.8125 30.7446 2.8125H26.4239C25.6275 2.8125 24.9837 3.23157 24.9837 3.75C24.9837 4.26843 25.6275 4.6875 26.4239 4.6875Z" fill="#582EFF"/>
<path d="M43.7252 0.0028125C43.718 0.0028125 43.7137 0 43.7065 0H9.1413C4.37561 0 0.5 2.5228 0.5 5.625V53.4375C0.5 57.0554 5.02373 60 10.5815 60H42.2663C47.8242 60 52.3478 57.0554 52.3478 53.4375V5.62687C52.3478 2.52843 48.4809 0.009375 43.7252 0.0028125ZM9.1413 1.875H43.6922C43.698 1.875 43.7008 1.87688 43.7065 1.87688C46.8838 1.87688 49.4674 3.55875 49.4674 5.62687H3.38043V5.625C3.38043 3.55687 5.96419 1.875 9.1413 1.875ZM42.2663 54.375H26.4239H10.5815C6.61085 54.375 3.38043 52.2721 3.38043 49.6875V48.75H26.4239H49.4674V49.6875C49.4674 52.2721 46.2369 54.375 42.2663 54.375ZM3.38043 7.50187H49.4674V46.875H3.38043V7.50187ZM42.2663 58.125H10.5815C7.09908 58.125 4.18841 56.507 3.52446 54.3657C5.34489 55.5291 7.83647 56.25 10.5815 56.25H42.2663C45.0115 56.25 47.5029 55.5291 49.3234 54.3657C48.6595 56.507 45.7486 58.125 42.2663 58.125Z" fill="#582EFF"/>
<path d="M30.7446 51.5625C30.7446 50.0118 28.8062 48.75 26.4239 48.75C24.0417 48.75 22.1033 50.0118 22.1033 51.5625C22.1033 53.1132 24.0417 54.375 26.4239 54.375C28.8062 54.375 30.7446 53.1132 30.7446 51.5625ZM26.4239 52.5C25.6289 52.5 24.9837 52.08 24.9837 51.5625C24.9837 51.045 25.6289 50.625 26.4239 50.625C27.2189 50.625 27.8641 51.045 27.8641 51.5625C27.8641 52.08 27.2189 52.5 26.4239 52.5Z" fill="#582EFF"/>
<path d="M12.7138 32.8073C12.7239 32.8073 12.7326 32.811 12.7426 32.811H40.1069C42.0928 32.811 43.7074 31.7601 43.7074 30.4673C43.7074 29.1744 42.0928 28.1235 40.1069 28.1235H12.7426C10.758 28.1235 9.14355 29.1744 9.14355 30.4664C9.14355 31.7517 10.7422 32.7969 12.7138 32.8073ZM40.1069 29.9985C40.5028 29.9985 40.827 30.2094 40.827 30.4673C40.827 30.7251 40.5028 30.936 40.1069 30.936H12.757C12.7513 30.936 12.7484 30.9342 12.7426 30.9342C12.3466 30.9342 12.024 30.7242 12.024 30.4664C12.024 30.2085 12.3466 29.9985 12.7426 29.9985H40.1069Z" fill="#582EFF"/>
<path d="M40.1069 33.7485H12.7426C10.758 33.7485 9.14355 34.7994 9.14355 36.0914C9.14355 37.3767 10.7422 38.4219 12.7138 38.4323C12.7239 38.4323 12.7326 38.436 12.7426 38.436H40.1069C42.0928 38.436 43.7074 37.3851 43.7074 36.0923C43.7074 34.7994 42.0928 33.7485 40.1069 33.7485ZM12.757 36.561C12.7513 36.561 12.7484 36.5592 12.7426 36.5592C12.3466 36.5592 12.024 36.3492 12.024 36.0914C12.024 35.8335 12.3466 35.6235 12.7426 35.6235H40.1069C40.5028 35.6235 40.827 35.8344 40.827 36.0923C40.827 36.3501 40.5028 36.561 40.1069 36.561H12.757Z" fill="#582EFF"/>
<path d="M33.625 40.3118H19.2228C18.4264 40.3118 17.7826 40.7309 17.7826 41.2493C17.7826 41.7677 18.4264 42.1868 19.2228 42.1868H33.625C34.4214 42.1868 35.0652 41.7677 35.0652 41.2493C35.0652 40.7309 34.4214 40.3118 33.625 40.3118Z" fill="#582EFF"/>
<path d="M20.0186 24.7485C20.0258 24.7532 20.0345 24.756 20.0417 24.7598C21.7814 25.6889 24.0053 26.2485 26.4262 26.2485C31.9841 26.2485 36.5077 23.3039 36.5077 19.686C36.5077 16.0682 31.9841 13.1235 26.4262 13.1235C20.8683 13.1235 16.3446 16.0682 16.3446 19.686C16.3432 21.7223 17.7748 23.5439 20.0186 24.7485ZM22.8602 23.7342C23.6522 22.9776 24.9745 22.4985 26.4262 22.4985C27.8766 22.4985 29.1986 22.9785 29.9908 23.7332C28.9349 24.1298 27.7282 24.3735 26.4248 24.3735C25.1213 24.3735 23.9158 24.1298 22.8602 23.7342ZM26.4248 20.6235C25.6298 20.6235 24.9846 20.2035 24.9846 19.686C24.9846 19.1685 25.6298 18.7485 26.4248 18.7485C27.2198 18.7485 27.865 19.1685 27.865 19.686C27.865 20.2035 27.2198 20.6235 26.4248 20.6235ZM26.4248 14.9985C30.3954 14.9985 33.6259 17.1014 33.6259 19.686C33.6259 20.7389 33.0699 21.6998 32.1668 22.4835C31.5808 21.9801 30.8376 21.5705 30.0037 21.2582C30.4731 20.8101 30.7455 20.2682 30.7455 19.686C30.7455 18.1355 28.8068 16.8735 26.4248 16.8735C24.0426 16.8735 22.1041 18.1355 22.1041 19.686C22.1041 20.2682 22.3777 20.8101 22.8458 21.2601C22.0133 21.5723 21.2687 21.9819 20.684 22.4855C19.7795 21.7007 19.2236 20.7389 19.2236 19.686C19.2236 17.1014 22.454 14.9985 26.4248 14.9985Z" fill="#582EFF"/>
</g>
<defs>
<clipPath id="clip0_1:280">
<path d="M0.5 5C0.5 2.23858 2.73858 0 5.5 0H48.5C51.2614 0 53.5 2.23858 53.5 5V55C53.5 57.7614 51.2614 60 48.5 60H5.5C2.73858 60 0.5 57.7614 0.5 55V5Z" fill="white"/>
</clipPath>
</defs>
</svg>
