<svg width="190" height="190" viewBox="0 0 190 190" fill="none" xmlns="http://www.w3.org/2000/svg">
<rect width="190" height="190" fill="#424242"/>
<path d="M36.66 131C35.9533 131 35.3527 130.788 34.858 130.364C34.434 129.869 34.222 129.269 34.222 128.562V59.344C34.222 58.5667 34.434 57.966 34.858 57.542C35.3527 57.0473 35.9533 56.8 36.66 56.8H41.536C42.808 56.8 43.6913 57.2947 44.186 58.284L79.378 112.344V59.344C79.378 58.5667 79.59 57.966 80.014 57.542C80.5087 57.0473 81.1093 56.8 81.816 56.8H86.904C87.6813 56.8 88.282 57.0473 88.706 57.542C89.2007 57.966 89.448 58.5667 89.448 59.344V128.456C89.448 129.163 89.2007 129.763 88.706 130.258C88.282 130.753 87.7167 131 87.01 131H81.922C80.862 131 80.014 130.505 79.378 129.516L44.292 75.986V128.562C44.292 129.269 44.0447 129.869 43.55 130.364C43.0553 130.788 42.4547 131 41.748 131H36.66ZM131.775 132.06C125.91 132.06 120.822 131.141 116.511 129.304C112.271 127.467 109.02 125.064 106.759 122.096C104.498 119.057 103.296 115.807 103.155 112.344C103.155 111.779 103.367 111.284 103.791 110.86C104.286 110.365 104.851 110.118 105.487 110.118H110.893C112.236 110.118 113.154 110.825 113.649 112.238C114.285 115.206 116.087 117.75 119.055 119.87C122.094 121.99 126.334 123.05 131.775 123.05C137.64 123.05 142.057 122.025 145.025 119.976C147.993 117.856 149.477 114.923 149.477 111.178C149.477 108.775 148.735 106.832 147.251 105.348C145.838 103.864 143.718 102.557 140.891 101.426C138.064 100.295 133.824 98.882 128.171 97.186C122.659 95.6313 118.278 93.9707 115.027 92.204C111.776 90.4373 109.338 88.2467 107.713 85.632C106.088 83.0173 105.275 79.7313 105.275 75.774C105.275 71.958 106.3 68.5307 108.349 65.492C110.469 62.4533 113.472 60.086 117.359 58.39C121.246 56.6233 125.874 55.74 131.245 55.74C136.757 55.74 141.492 56.7293 145.449 58.708C149.406 60.616 152.41 63.054 154.459 66.022C156.508 68.99 157.604 71.958 157.745 74.926C157.745 75.4913 157.533 75.986 157.109 76.41C156.756 76.834 156.226 77.046 155.519 77.046H149.901C148.417 77.046 147.498 76.3747 147.145 75.032C146.721 72.064 145.06 69.626 142.163 67.718C139.266 65.7393 135.626 64.75 131.245 64.75C126.44 64.75 122.659 65.6687 119.903 67.506C117.147 69.3433 115.769 72.064 115.769 75.668C115.769 78.0707 116.405 80.0493 117.677 81.604C119.02 83.1587 121.034 84.5367 123.719 85.738C126.404 86.8687 130.326 88.176 135.485 89.66C141.492 91.2853 146.226 92.9813 149.689 94.748C153.152 96.444 155.731 98.5993 157.427 101.214C159.123 103.758 159.971 107.009 159.971 110.966C159.971 117.538 157.427 122.697 152.339 126.442C147.251 130.187 140.396 132.06 131.775 132.06Z" fill="white"/>
</svg>
