<svg width="71" height="60" viewBox="0 0 71 60" fill="none" xmlns="http://www.w3.org/2000/svg">
<g clip-path="url(#clip0_1:291)">
<path d="M0.5 5C0.5 2.23858 2.73858 0 5.5 0H65.5C68.2614 0 70.5 2.23858 70.5 5V55C70.5 57.7614 68.2614 60 65.5 60H5.5C2.73858 60 0.5 57.7614 0.5 55V5Z" fill="#FF814A" fill-opacity="0.12"/>
<path d="M57.1017 17.4317C57.8566 17.4317 58.4688 16.9069 58.4688 16.2597V3.51562C58.4688 1.57711 56.6288 0 54.3671 0H4.60156C2.33997 0 0.5 1.57711 0.5 3.51562V56.4843C0.5 58.4229 2.33997 60 4.60156 60H54.3671C56.6288 60 58.4688 58.4229 58.4688 56.4843V47.8509C58.4688 47.2037 57.8566 46.6791 57.1017 46.6791C56.3465 46.6791 55.7344 47.2037 55.7344 47.8509V56.4843C55.7344 57.1305 55.121 57.6562 54.3671 57.6562H4.60156C3.8477 57.6562 3.23438 57.1305 3.23438 56.4843V3.51562C3.23438 2.86946 3.8477 2.34375 4.60156 2.34375H54.3671C55.121 2.34375 55.7344 2.86946 55.7344 3.51562V16.2597C55.7344 16.9069 56.3465 17.4317 57.1017 17.4317Z" fill="#FF814A"/>
<path d="M29.4844 6.32812C22.5488 6.32812 16.9062 11.1646 16.9062 17.1093C16.9062 20.1935 18.4253 22.9786 20.855 24.9456C20.9005 24.9873 20.9489 25.0268 21.0018 25.0627C23.24 26.8181 26.2187 27.8906 29.4842 27.8906C32.7497 27.8906 35.7284 26.8181 37.9666 25.0627C38.0196 25.0268 38.068 24.9872 38.1135 24.9456C40.5435 22.9786 42.0625 20.1935 42.0625 17.1093C42.0625 11.1646 36.42 6.32812 29.4844 6.32812ZM29.4844 25.5468C27.2519 25.5468 25.1916 24.9057 23.5384 23.8279C24.7399 22.0015 26.9822 20.8593 29.4844 20.8593C31.9865 20.8593 34.2288 22.0015 35.4303 23.8279C33.7771 24.9057 31.7169 25.5468 29.4844 25.5468ZM27.2969 16.6407V15.8789C27.2969 14.8451 28.2783 14.0039 29.4844 14.0039C30.6905 14.0039 31.6719 14.8451 31.6719 15.8789V16.6407C31.6719 17.6745 30.6905 18.5157 29.4844 18.5157C28.2783 18.5157 27.2969 17.6745 27.2969 16.6407ZM37.4059 22.1114C36.3976 20.8294 35.0002 19.8326 33.3778 19.2171C34.0216 18.5039 34.4062 17.6103 34.4062 16.6407V15.8789C34.4062 13.5526 32.1985 11.6602 29.4844 11.6602C26.7703 11.6602 24.5625 13.5526 24.5625 15.8789V16.6407C24.5625 17.6103 24.9472 18.5039 25.591 19.2171C23.9685 19.8326 22.5712 20.8294 21.5628 22.1114C20.3559 20.7105 19.6406 18.9806 19.6406 17.1093C19.6406 12.4569 24.0566 8.67188 29.4844 8.67188C34.9122 8.67188 39.3281 12.4569 39.3281 17.1093C39.3281 18.9806 38.6129 20.7105 37.4059 22.1114Z" fill="#FF814A"/>
<path d="M36.8671 51.3282H29.4844C28.7294 51.3282 28.1171 51.8527 28.1171 52.5C28.1171 53.1472 28.7294 53.6718 29.4844 53.6718H36.8671C37.6222 53.6718 38.2344 53.1472 38.2344 52.5C38.2344 51.8527 37.6222 51.3282 36.8671 51.3282Z" fill="#FF814A"/>
<path d="M36.8671 44.7657H17.4531C16.6982 44.7657 16.0859 45.2902 16.0859 45.9375C16.0859 46.5847 16.6982 47.1093 17.4531 47.1093H36.8671C37.6222 47.1093 38.2344 46.5847 38.2344 45.9375C38.2344 45.2902 37.6222 44.7657 36.8671 44.7657Z" fill="#FF814A"/>
<path d="M36.8671 38.2032H17.4531C16.6982 38.2032 16.0859 38.7277 16.0859 39.375C16.0859 40.0222 16.6982 40.5468 17.4531 40.5468H36.8671C37.6222 40.5468 38.2344 40.0222 38.2344 39.375C38.2344 38.7277 37.6222 38.2032 36.8671 38.2032Z" fill="#FF814A"/>
<path d="M12.5813 31.984C12.3272 31.7659 11.9745 31.6407 11.6135 31.6407C11.2538 31.6407 10.9011 31.7659 10.6469 31.984C10.3926 32.202 10.2463 32.5042 10.2463 32.8125C10.2463 33.1207 10.3925 33.423 10.6469 33.6409C10.9026 33.859 11.2538 33.9843 11.6135 33.9843C11.9745 33.9843 12.3258 33.859 12.5813 33.6409C12.8356 33.423 12.9821 33.1207 12.9821 32.8125C12.9821 32.5042 12.8358 32.202 12.5813 31.984Z" fill="#FF814A"/>
<path d="M12.5813 38.5465C12.3258 38.3284 11.9745 38.2032 11.6135 38.2032C11.2538 38.2032 10.9026 38.3284 10.6469 38.5465C10.3926 38.7645 10.2463 39.0667 10.2463 39.375C10.2463 39.6832 10.3925 39.9855 10.6469 40.2034C10.9026 40.4215 11.2538 40.5468 11.6135 40.5468C11.9745 40.5468 12.3258 40.4215 12.5813 40.2034C12.8356 39.9855 12.9821 39.6832 12.9821 39.375C12.9821 39.0667 12.8358 38.7645 12.5813 38.5465Z" fill="#FF814A"/>
<path d="M12.5813 45.109C12.3258 44.8909 11.9745 44.7657 11.6135 44.7657C11.2538 44.7657 10.9026 44.8909 10.6469 45.109C10.3926 45.327 10.2463 45.6292 10.2463 45.9375C10.2463 46.2457 10.3925 46.548 10.6469 46.7659C10.9011 46.984 11.2538 47.1093 11.6135 47.1093C11.9745 47.1093 12.3272 46.984 12.5813 46.7659C12.8356 46.548 12.9821 46.2457 12.9821 45.9375C12.9821 45.6292 12.8358 45.327 12.5813 45.109Z" fill="#FF814A"/>
<path d="M36.8671 31.6407H17.4531C16.6982 31.6407 16.0859 32.1652 16.0859 32.8125C16.0859 33.4597 16.6982 33.9843 17.4531 33.9843H36.8671C37.6222 33.9843 38.2344 33.4597 38.2344 32.8125C38.2344 32.1652 37.6222 31.6407 36.8671 31.6407Z" fill="#FF814A"/>
<path d="M67.629 15.2718C66.3007 14.6145 64.7534 14.4399 63.2716 14.7801C61.7901 15.1205 60.5518 15.935 59.785 17.0735L42.58 42.6159C42.4858 42.756 42.4262 42.9113 42.4053 43.0719L41.1942 52.37C41.1341 52.8327 41.3991 53.2821 41.8693 53.5149C42.0818 53.6199 42.3175 53.672 42.5529 53.672C42.8388 53.672 43.1237 53.5952 43.3636 53.4437L52.1525 47.8956C52.3044 47.7998 52.4316 47.678 52.5258 47.5379L69.7305 21.9954C71.3138 19.6451 70.3711 16.6289 67.629 15.2718ZM44.2584 49.968L44.8909 45.1127L48.8478 47.0709L44.2584 49.968ZM50.8414 45.3512L45.6318 42.773L59.4383 22.2758L64.648 24.8538L50.8414 45.3512ZM67.3626 20.8235L66.0149 22.8242L60.8054 20.246L62.1531 18.2453C62.5547 17.6489 63.2032 17.2223 63.9792 17.0441C64.7555 16.8657 65.5661 16.9574 66.2617 17.3016C66.9573 17.646 67.455 18.2019 67.6629 18.867C67.871 19.5323 67.7642 20.2271 67.3626 20.8235Z" fill="#FF814A"/>
</g>
<defs>
<clipPath id="clip0_1:291">
<path d="M0.5 5C0.5 2.23858 2.73858 0 5.5 0H65.5C68.2614 0 70.5 2.23858 70.5 5V55C70.5 57.7614 68.2614 60 65.5 60H5.5C2.73858 60 0.5 57.7614 0.5 55V5Z" fill="white"/>
</clipPath>
</defs>
</svg>
