<svg width="79" height="68" viewBox="0 0 79 68" fill="none" xmlns="http://www.w3.org/2000/svg">
<g clip-path="url(#clip0_1:312)">
<path d="M0.5 5C0.5 2.23858 2.73858 0 5.5 0H73.5C76.2614 0 78.5 2.23858 78.5 5V63C78.5 65.7614 76.2614 68 73.5 68H5.5C2.73858 68 0.5 65.7614 0.5 63V5Z" fill="#C0FEEF"/>
<g filter="url(#filter0_d_1:312)">
<path d="M28.9058 43.3717C28.8892 43.3008 28.8652 43.2311 28.8333 43.1637C28.8016 43.0973 28.7623 43.0331 28.7167 42.9733C28.6708 42.9124 28.6175 42.856 28.5592 42.805C28.5007 42.7541 28.436 42.7077 28.3661 42.6679C28.2976 42.6279 28.224 42.5936 28.1466 42.566C28.0704 42.5384 27.9904 42.5161 27.9092 42.503C27.7454 42.4741 27.5766 42.4741 27.4141 42.503C27.3328 42.5161 27.2529 42.5384 27.1753 42.566C27.0991 42.5936 27.0255 42.6279 26.9569 42.6679C26.8872 42.7077 26.8224 42.7541 26.7641 42.805C26.7057 42.856 26.6523 42.9124 26.6066 42.9733C26.5596 43.0331 26.5216 43.0973 26.4899 43.1637C26.4581 43.2311 26.4327 43.3008 26.4174 43.3717C26.401 43.4425 26.3921 43.5156 26.3921 43.5876C26.3921 43.6595 26.401 43.7325 26.4174 43.8033C26.4327 43.8742 26.4581 43.9439 26.4899 44.0103C26.5216 44.0779 26.5596 44.1421 26.6066 44.2018C26.6523 44.2626 26.7057 44.3191 26.7641 44.37C26.8224 44.421 26.8872 44.4675 26.9569 44.5073C27.0255 44.5472 27.0991 44.5815 27.1753 44.6091C27.2529 44.6369 27.3328 44.659 27.4141 44.6723C27.4953 44.6866 27.5792 44.6944 27.6615 44.6944C27.7441 44.6944 27.8279 44.6866 27.9092 44.6723C27.9904 44.659 28.0704 44.6369 28.1466 44.6091C28.224 44.5815 28.2976 44.5471 28.3661 44.5073C28.436 44.4675 28.5007 44.421 28.5592 44.37C28.6175 44.3191 28.6708 44.2626 28.7167 44.2018C28.7623 44.1421 28.8016 44.0779 28.8333 44.0103C28.8652 43.9439 28.8892 43.8742 28.9058 43.8033C28.9222 43.7325 28.9312 43.6595 28.9312 43.5876C28.9312 43.5156 28.9222 43.4425 28.9058 43.3717Z" fill="#31C5A1"/>
<path d="M65.3975 43.713C65.3926 43.7019 65.3874 43.691 65.3822 43.6801C64.2137 41.2966 61.4732 40.4155 58.2301 41.3811L49.3855 43.5135C48.8741 42.1634 47.5987 41.0147 45.7953 40.4311C45.784 40.4276 45.7728 40.424 45.7616 40.4208L36.0394 37.544C35.2301 36.6322 32.6955 34.2988 27.9495 34.2988C24.6329 34.2988 21.6989 36.2824 20.0203 38.4445H8.26953C7.56838 38.4445 7 38.9399 7 39.5512V53.5051C7 54.1163 7.56838 54.6118 8.26953 54.6118H15.8178C16.5189 54.6118 17.0873 54.1163 17.0873 53.5051V52.5494H20.6271C21.3283 52.5494 21.8967 52.054 21.8967 51.4427V51.1241C23.9601 51.2811 24.6389 51.6224 26.534 52.5751C27.9914 53.3078 30.1941 54.415 34.1609 55.97C34.1794 55.9772 34.1979 55.984 34.2166 55.9904C34.9779 56.2515 36.4663 56.6617 38.3011 56.6617C39.5783 56.6617 41.0236 56.4628 42.5072 55.8765L62.0568 49.7743C62.0916 49.7634 62.1259 49.7512 62.1595 49.7378C64.0278 48.9884 66.812 46.8762 65.3975 43.713ZM14.5482 52.3981H9.53906V40.6579H14.5482V52.3981ZM19.3576 50.3359H17.0873V40.6579H19.3576V50.3359ZM61.145 47.7075L41.604 53.8071C41.587 53.8124 41.5637 53.8203 41.5468 53.8264C41.5296 53.8325 41.5126 53.8389 41.4957 53.8457C38.7741 54.936 36.1873 54.2833 35.1734 53.9396C31.3417 52.4365 29.2966 51.4085 27.8024 50.6572C25.7249 49.6128 24.7239 49.1095 21.8967 48.9061V39.9918C23.1 38.2724 25.4337 36.5123 27.9497 36.5123C32.2642 36.5123 34.0925 38.9588 34.1643 39.0575C34.3193 39.2774 34.5577 39.443 34.8379 39.5259L44.9275 42.5114C46.5389 43.0385 47.3905 44.2417 46.999 45.4413C46.8183 45.9954 46.401 46.4549 45.8238 46.7353C45.2517 47.0132 44.5903 47.0819 43.9598 46.9298L32.5858 43.7875C31.9169 43.6028 31.2037 43.9255 30.992 44.5083C30.7801 45.091 31.1503 45.713 31.8186 45.8976L43.2126 49.0455C43.2247 49.0487 43.2367 49.052 43.2489 49.0549C43.7037 49.1677 44.1668 49.2235 44.6272 49.2235C45.4699 49.2235 46.3034 49.0364 47.0598 48.6689C48.2293 48.1008 49.0752 47.1696 49.4413 46.0468C49.4705 45.9571 49.4963 45.8674 49.5188 45.7778L59.0509 43.4757C60.4276 43.0658 62.2347 42.9181 63.0393 44.5336C63.8721 46.4303 61.7076 47.4737 61.145 47.7075Z" fill="#31C5A1"/>
<path d="M52.5839 14.5563C52.5673 14.4854 52.5432 14.4157 52.5101 14.3481C52.4784 14.2817 52.4404 14.2175 52.3934 14.1578C52.3476 14.0969 52.2943 14.0405 52.2359 13.9896C52.1776 13.9387 52.1128 13.8922 52.0429 13.8523C51.9745 13.8125 51.9007 13.7782 51.8247 13.7505C51.7471 13.7229 51.6672 13.7007 51.5872 13.6874C51.4234 13.6587 51.2546 13.6587 51.0908 13.6874C51.0096 13.7007 50.9296 13.7229 50.8534 13.7505C50.776 13.7782 50.7024 13.8125 50.6339 13.8523C50.564 13.8922 50.4991 13.9387 50.4408 13.9896C50.3825 14.0405 50.3292 14.0969 50.2833 14.1578C50.2377 14.2175 50.1984 14.2817 50.1667 14.3481C50.1348 14.4157 50.1095 14.4854 50.0942 14.5563C50.0778 14.6271 50.0688 14.7002 50.0688 14.772C50.0688 14.844 50.0778 14.9171 50.0942 14.9879C50.1095 15.0587 50.1348 15.1284 50.1667 15.1949C50.1984 15.2623 50.2377 15.3265 50.2833 15.3863C50.3292 15.4472 50.3825 15.5036 50.4408 15.5546C50.4991 15.6054 50.564 15.6519 50.6339 15.6919C50.7024 15.7317 50.776 15.7659 50.8534 15.7936C50.9296 15.8213 51.0096 15.8423 51.0908 15.8568C51.1721 15.8711 51.2559 15.8789 51.3385 15.8789C51.4208 15.8789 51.5047 15.8711 51.5872 15.8568C51.6672 15.8423 51.7471 15.8213 51.8247 15.7936C51.9007 15.7659 51.9745 15.7317 52.0429 15.6919C52.1128 15.6519 52.1776 15.6054 52.2359 15.5546C52.2943 15.5036 52.3476 15.4472 52.3934 15.3863C52.4404 15.3265 52.4784 15.2623 52.5101 15.1949C52.5432 15.1284 52.5673 15.0587 52.5839 14.9879C52.6003 14.9171 52.6079 14.844 52.6079 14.772C52.6079 14.7002 52.6003 14.6271 52.5839 14.5563Z" fill="#31C5A1"/>
<path d="M70.7299 3.74837H63.1818C62.4806 3.74837 61.9122 4.24388 61.9122 4.85514V5.81073H58.3724C57.6712 5.81073 57.1028 6.30623 57.1028 6.9175V7.23604C55.0394 7.07898 54.3606 6.73788 52.4657 5.78517C51.0082 5.05248 48.8054 3.94516 44.8386 2.39026C44.8201 2.38296 44.8016 2.3762 44.7827 2.36979C43.4915 1.92685 40.1073 1.05539 36.4928 2.48344L31.3843 4.07809L27.078 0.324145C26.5824 -0.108048 25.7785 -0.108048 25.2827 0.324145L11.1455 12.6488C10.6882 13.0476 10.6005 13.739 11.1455 14.2141L35.3029 35.2744C35.6895 35.6116 36.5947 35.7136 37.0984 35.2744L50.0051 24.0226C50.3407 24.0479 50.6889 24.0615 51.0498 24.0615C54.3666 24.0615 57.3006 22.0779 58.979 19.9159H70.7299C71.4311 19.9159 71.9995 19.4205 71.9995 18.8092V4.85514C71.9995 4.24388 71.4311 3.74837 70.7299 3.74837ZM26.1804 2.67193L29.0738 5.19448C28.2137 5.65822 27.2192 5.90635 26.1804 5.90635C25.1412 5.90635 24.1468 5.65834 23.2867 5.19448L26.1804 2.67193ZM16.7322 15.9541L13.8387 13.4314L16.7322 10.9088C17.2641 11.6587 17.5487 12.5256 17.5487 13.4314C17.5487 14.3372 17.2643 15.2041 16.7322 15.9541ZM36.2008 32.9266L33.3078 30.4045C35.0741 29.4542 37.3272 29.4542 39.0937 30.4045L36.2008 32.9266ZM40.9228 28.81C38.1174 27.0359 34.2842 27.0359 31.4788 28.81L18.5612 17.5485C19.5526 16.3598 20.0877 14.9319 20.0877 13.4314C20.0877 11.9307 19.5526 10.503 18.5612 9.31433L21.4579 6.78912C22.8213 7.6534 24.459 8.12001 26.1804 8.12001C27.9017 8.12001 29.5394 7.6534 30.9029 6.78912L33.6489 9.18295C33.0564 9.2592 32.4785 9.42943 31.9397 9.69117C31.0297 10.1332 30.3158 10.7952 29.8712 11.596C28.4391 11.8272 27.1134 12.4316 26.0734 13.3382C23.2518 15.7981 23.2518 19.8005 26.0734 22.2604C27.4843 23.4903 29.3374 24.1053 31.1906 24.1053C33.0437 24.1053 34.897 23.4903 36.3078 22.2604C37.2256 21.4602 37.8687 20.4768 38.1907 19.4049L42.4772 20.6733C41.9947 22.622 42.4889 24.6722 43.822 26.2826L40.9228 28.81ZM33.2043 17.929C33.2155 17.9326 33.2267 17.9361 33.2379 17.9395L35.7765 18.6906C35.5849 19.4449 35.151 20.1385 34.5124 20.6952C32.6808 22.2918 29.7004 22.2921 27.8691 20.6952C26.0374 19.0985 26.0374 16.5003 27.8691 14.9035C28.3107 14.5181 28.8322 14.217 29.4003 14.0128C29.6346 15.713 31.0389 17.2285 33.2043 17.929ZM45.6513 24.6877C45.1613 23.9915 44.8839 23.1969 44.8402 22.386C45.4483 22.7694 46.1914 23.1448 47.0792 23.4429L45.6513 24.6877ZM57.1026 18.3679C55.8995 20.0876 53.5658 21.8477 51.0498 21.8477C50.5791 21.8477 50.1379 21.8185 49.7255 21.7665C49.7238 21.7662 49.7222 21.7661 49.7206 21.7658C46.9789 21.4186 45.504 20.0601 45.018 19.5222C44.992 19.4891 44.8817 19.3633 44.8654 19.3423C44.7174 19.1118 44.4749 18.9267 44.1657 18.8351L34.0718 15.8485C32.4611 15.3214 31.6096 14.1189 32 12.9196C32.0001 12.9189 32.0005 12.9181 32.0006 12.9173C32.0011 12.9164 32.0013 12.9154 32.0016 12.9145C32.1829 12.3623 32.5996 11.9042 33.1755 11.6245C33.7475 11.3466 34.4089 11.2776 35.0395 11.43L46.4137 14.5723C47.0822 14.7571 47.7956 14.4343 48.0074 13.8515C48.2193 13.2688 47.8491 12.6468 47.1807 12.4621L38.1347 9.963L38.0557 9.89415C38.0549 9.89349 38.0542 9.89272 38.0533 9.89206L33.37 5.80918L37.3955 4.55256C37.4089 4.54824 37.4258 4.54282 37.4392 4.53806C37.4426 4.53685 37.4492 4.53462 37.4525 4.5334C37.4699 4.52733 37.4868 4.52091 37.5037 4.51415C40.2251 3.42376 42.8119 4.07643 43.8259 4.42018C47.6577 5.9233 49.7029 6.95137 51.1971 7.70253C53.2746 8.74699 54.2756 9.25024 57.1026 9.45377V18.3679ZM61.9122 17.7022H59.6419V8.02427H61.9122V17.7022ZM69.4604 17.7022H64.4512V5.96191H69.4604V17.7022Z" fill="#31C5A1"/>
</g>
</g>
<defs>
<filter id="filter0_d_1:312" x="3" y="0" width="72.9995" height="64.6617" filterUnits="userSpaceOnUse" color-interpolation-filters="sRGB">
<feFlood flood-opacity="0" result="BackgroundImageFix"/>
<feColorMatrix in="SourceAlpha" type="matrix" values="0 0 0 0 0 0 0 0 0 0 0 0 0 0 0 0 0 0 127 0" result="hardAlpha"/>
<feOffset dy="4"/>
<feGaussianBlur stdDeviation="2"/>
<feColorMatrix type="matrix" values="0 0 0 0 0 0 0 0 0 0 0 0 0 0 0 0 0 0 0.25 0"/>
<feBlend mode="normal" in2="BackgroundImageFix" result="effect1_dropShadow_1:312"/>
<feBlend mode="normal" in="SourceGraphic" in2="effect1_dropShadow_1:312" result="shape"/>
</filter>
<clipPath id="clip0_1:312">
<path d="M0.5 5C0.5 2.23858 2.73858 0 5.5 0H73.5C76.2614 0 78.5 2.23858 78.5 5V63C78.5 65.7614 76.2614 68 73.5 68H5.5C2.73858 68 0.5 65.7614 0.5 63V5Z" fill="white"/>
</clipPath>
</defs>
</svg>
